<svg width="38" height="32" viewBox="0 0 38 32" fill="none" xmlns="http://www.w3.org/2000/svg">
<path d="M12.1622 14.7487C11.2263 14.4827 10.2903 14.3477 9.37993 14.3477C7.97406 14.3477 6.80097 14.6649 5.89136 15.0533C6.76828 11.884 8.8749 6.41538 13.0714 5.79954C13.46 5.74248 13.7785 5.46506 13.8845 5.09162L14.8017 1.85305C14.8791 1.57917 14.8332 1.286 14.675 1.04833C14.5167 0.810646 14.2624 0.652062 13.9774 0.613498C13.6677 0.571786 13.352 0.550537 13.0391 0.550537C8.00196 0.550537 3.01345 5.74091 0.908426 13.1727C-0.327243 17.5328 -0.689573 24.0878 2.35416 28.2138C4.05739 30.5225 6.54228 31.7553 9.73987 31.8785C9.75302 31.8789 9.76578 31.8793 9.77893 31.8793C13.7243 31.8793 17.2228 29.2562 18.2871 25.5009C18.9229 23.256 18.6355 20.9016 17.4771 18.8699C16.3312 16.8611 14.4438 15.3968 12.1622 14.7487Z" fill="white"/>
<path d="M36.8592 18.8703C35.7132 16.8611 33.8258 15.3968 31.5442 14.7487C30.6083 14.4827 29.6724 14.3477 28.7624 14.3477C27.3565 14.3477 26.183 14.6649 25.2734 15.0533C26.1503 11.884 28.257 6.41538 32.4538 5.79954C32.8425 5.74248 33.1606 5.46506 33.267 5.09162L34.1842 1.85305C34.2615 1.57917 34.2157 1.286 34.0574 1.04833C33.8996 0.810646 33.6453 0.652062 33.3599 0.613498C33.0506 0.571786 32.7349 0.550537 32.4216 0.550537C27.3844 0.550537 22.3959 5.74091 20.2905 13.1727C19.0552 17.5328 18.6929 24.0878 21.737 28.2146C23.4398 30.5229 25.9251 31.7561 29.1223 31.8789C29.1355 31.8793 29.1482 31.8797 29.1618 31.8797C33.1068 31.8797 36.6057 29.2566 37.67 25.5013C38.3049 23.2564 38.0171 20.9016 36.8592 18.8703Z" fill="white"/>
</svg>
