<svg width="30" height="30" viewBox="0 0 30 30" fill="none" xmlns="http://www.w3.org/2000/svg">
<g clip-path="url(#clip0)">
<path d="M28.387 2.25899e-06H1.64048C1.16874 -0.000890084 0.736269 0.262647 0.520626 0.682344C0.302009 1.10769 0.340379 1.61989 0.619673 2.00836L10.4185 15.8122C10.4217 15.817 10.4253 15.8215 10.4286 15.8262C10.7846 16.3069 10.9771 16.889 10.9782 17.4875V28.7416C10.9762 29.0751 11.107 29.3951 11.342 29.6316C11.577 29.8681 11.8964 30.0007 12.2296 30.0007C12.3991 30.0007 12.5666 29.9668 12.723 29.902L18.2292 27.8023C18.7226 27.6518 19.0501 27.1863 19.0501 26.6256V17.4875C19.051 16.8893 19.2437 16.3069 19.5995 15.8262C19.6027 15.8215 19.6063 15.817 19.6096 15.8122L29.4081 2.00776C29.6874 1.6196 29.7257 1.10769 29.5071 0.682344C29.2915 0.262647 28.859 -0.000890084 28.387 2.25899e-06ZM18.3717 14.9241C17.8244 15.6668 17.5284 16.5648 17.5266 17.4875V26.4406L12.5011 28.3567V17.4875C12.4993 16.5648 12.2034 15.6668 11.6558 14.9241L2.14285 1.52293H27.8849L18.3717 14.9241Z" fill="#ED135A"/>
</g>
<defs>
<clipPath id="clip0">
<rect width="30" height="30" fill="white"/>
</clipPath>
</defs>
</svg>
