<svg width="30" height="30" viewBox="0 0 30 30" fill="none" xmlns="http://www.w3.org/2000/svg">
<g clip-path="url(#clip0)">
<path d="M25.6047 4.39143C19.7459 -1.46554 10.2484 -1.46413 4.39143 4.39466C-1.46554 10.2534 -1.46413 19.7509 4.39466 25.6079C10.2534 31.4648 19.7509 31.4634 25.6079 25.6047C28.4207 22.7909 30.0005 18.975 29.9997 14.9964C29.9988 11.0185 28.4179 7.20382 25.6047 4.39143ZM22.7166 20.8945C22.716 20.8951 22.7153 20.8958 22.7146 20.8965V20.8915L21.9546 21.6465C20.9717 22.6418 19.5402 23.0513 18.1796 22.7265C16.8088 22.3596 15.5057 21.7755 14.3196 20.9965C13.2177 20.2923 12.1965 19.469 11.2746 18.5415C10.4264 17.6994 9.66428 16.7748 8.9996 15.7815C8.27257 14.7126 7.69712 13.5482 7.2896 12.3215C6.82243 10.8803 7.20956 9.29889 8.28962 8.23647L9.1796 7.34649C9.42704 7.09794 9.82911 7.09706 10.0776 7.3445C10.0782 7.34514 10.079 7.34579 10.0796 7.34649L12.8896 10.1565C13.1381 10.4039 13.139 10.806 12.8916 11.0545C12.8909 11.0551 12.8903 11.0558 12.8896 11.0565L11.2396 12.7065C10.7661 13.1748 10.7066 13.9189 11.0996 14.4565C11.6964 15.2755 12.3568 16.0462 13.0746 16.7615C13.8749 17.5653 14.745 18.2965 15.6746 18.9465C16.2117 19.3212 16.9399 19.258 17.4046 18.7965L18.9996 17.1765C19.247 16.928 19.6491 16.9271 19.8976 17.1745C19.8982 17.1752 19.8989 17.1758 19.8996 17.1765L22.7146 19.9965C22.9632 20.2439 22.9641 20.6459 22.7166 20.8945Z" fill="#ED135A"/>
</g>
<defs>
<clipPath id="clip0">
<rect width="30" height="30" fill="white"/>
</clipPath>
</defs>
</svg>
