<svg width="25" height="25" viewBox="0 0 25 25" fill="none" xmlns="http://www.w3.org/2000/svg">
<g clip-path="url(#clip0)">
<path d="M5.59553 24.4944C5.32163 24.4944 5.04963 24.409 4.8175 24.2411C4.3851 23.9277 4.1831 23.3891 4.30079 22.8693L5.90911 15.7847L0.454713 11.0013C0.0537783 10.6513 -0.0993857 10.097 0.0652228 9.58984C0.229831 9.08362 0.677688 8.72522 1.20794 8.6762L8.42477 8.021L11.278 1.34378C11.4884 0.853196 11.9676 0.536377 12.4999 0.536377C13.0323 0.536377 13.5114 0.853196 13.7218 1.34263L16.5751 8.021L23.7908 8.6762C24.3222 8.72407 24.77 9.08362 24.9346 9.58984C25.0992 10.0961 24.947 10.6513 24.5461 11.0013L19.0917 15.7837L20.7 22.8682C20.8179 23.3891 20.6157 23.9277 20.1835 24.2402C19.7522 24.5526 19.1772 24.5766 18.723 24.3037L12.4999 20.5848L6.27685 24.3058C6.06647 24.4307 5.83205 24.4944 5.59553 24.4944ZM12.4999 18.9828C12.7364 18.9828 12.9707 19.0463 13.1812 19.1713L19.0543 22.6839L17.5364 15.9972C17.4281 15.5213 17.5896 15.0244 17.9574 14.7024L23.1075 10.1857L16.2937 9.56695C15.8032 9.52213 15.3812 9.2137 15.1895 8.76165L12.4999 2.46037L9.80706 8.7626C9.61747 9.2116 9.19555 9.52003 8.70611 9.56485L1.89137 10.1836L7.04134 14.7003C7.41023 15.0233 7.57159 15.5192 7.4623 15.9962L5.94554 22.6828L11.8186 19.1713C12.029 19.0463 12.2634 18.9828 12.4999 18.9828ZM8.36965 8.15014C8.36965 8.15014 8.36965 8.15128 8.3685 8.15223L8.36965 8.15014ZM16.6281 8.14708L16.6293 8.14918C16.6293 8.14804 16.6293 8.14804 16.6281 8.14708Z" fill="#ED135A"/>
</g>
<defs>
<clipPath id="clip0">
<rect width="25" height="25" fill="white"/>
</clipPath>
</defs>
</svg>
