<svg width="30" height="30" viewBox="0 0 30 30" fill="none" xmlns="http://www.w3.org/2000/svg">
<g clip-path="url(#clip0)">
<path d="M25.6066 4.39339C22.7735 1.56029 19.0066 0 15 0C10.9932 0 7.22649 1.56029 4.39339 4.39339C1.56029 7.22649 0 10.9932 0 15C0 19.0066 1.56029 22.7735 4.39339 25.6066C7.22649 28.4397 10.9932 30 15 30C19.0066 30 22.7735 28.4397 25.6066 25.6066C28.4397 22.7735 30 19.0066 30 15C30 10.9932 28.4397 7.22649 25.6066 4.39339ZM7.51991 25.9211C8.14728 22.3089 11.2775 19.6445 15 19.6445C18.7228 19.6445 21.8527 22.3089 22.4801 25.9211C20.3503 27.3843 17.7736 28.2422 15 28.2422C12.2264 28.2422 9.64966 27.3843 7.51991 25.9211ZM10.2306 13.1172C10.2306 10.4871 12.3701 8.34778 15 8.34778C17.6299 8.34778 19.7694 10.4874 19.7694 13.1172C19.7694 15.7471 17.6299 17.8867 15 17.8867C12.3701 17.8867 10.2306 15.7471 10.2306 13.1172ZM24.0026 24.7018C23.5295 23.0202 22.59 21.4945 21.273 20.3027C20.465 19.5715 19.5454 18.9944 18.5566 18.5877C20.3437 17.422 21.5275 15.4053 21.5275 13.1172C21.5275 9.51805 18.5992 6.58997 15 6.58997C11.4008 6.58997 8.47275 9.51805 8.47275 13.1172C8.47275 15.4053 9.65652 17.422 11.4434 18.5877C10.4549 18.9944 9.53499 19.5712 8.72704 20.3025C7.41028 21.4943 6.47049 23.02 5.99739 24.7016C3.39157 22.2816 1.75781 18.8283 1.75781 15C1.75781 7.69821 7.69821 1.75781 15 1.75781C22.3018 1.75781 28.2422 7.69821 28.2422 15C28.2422 18.8285 26.6084 22.2819 24.0026 24.7018Z" fill="#3C3C3C"/>
</g>
<defs>
<clipPath id="clip0">
<rect width="30" height="30" fill="white"/>
</clipPath>
</defs>
</svg>
