<svg width="35" height="35" viewBox="0 0 35 35" fill="none" xmlns="http://www.w3.org/2000/svg">
<g clip-path="url(#clip0)">
<path d="M22.8873 15.9272L15.155 11.6964C14.7104 11.4531 14.1849 11.4622 13.7491 11.7204C13.3131 11.9789 13.053 12.4355 13.053 12.9424V21.3313C13.053 21.8357 13.3115 22.2916 13.7446 22.5503C13.9708 22.6854 14.2215 22.7533 14.4728 22.7533C14.7029 22.7533 14.9337 22.6964 15.1459 22.5821L22.8785 18.4242C23.3376 18.1772 23.6241 17.7 23.6262 17.1785C23.6281 16.657 23.345 16.1777 22.8873 15.9272ZM15.104 20.276V14.0062L20.883 17.1684L15.104 20.276Z" fill="#009DBC"/>
<path d="M34.7424 10.495L34.7408 10.479C34.7112 10.1973 34.4161 7.6915 33.198 6.41697C31.7899 4.91787 30.1936 4.73576 29.4259 4.64844C29.3624 4.64123 29.3042 4.63455 29.2521 4.62761L29.1909 4.6212C24.5639 4.28474 17.576 4.23882 17.5061 4.23855L17.4999 4.23828L17.4938 4.23855C17.4238 4.23882 10.436 4.28474 5.76727 4.6212L5.70558 4.62761C5.65591 4.63429 5.60117 4.64043 5.54163 4.64737C4.78273 4.73495 3.20353 4.91734 1.79149 6.47064C0.631254 7.73155 0.295867 10.1837 0.26142 10.4593L0.257415 10.495C0.247001 10.6123 0 13.403 0 16.2046V18.8237C0 21.6253 0.247001 24.416 0.257415 24.5335L0.259284 24.5512C0.288924 24.8283 0.583723 27.2882 1.7963 28.5633C3.12022 30.0122 4.79422 30.2039 5.69463 30.307C5.83696 30.3233 5.95953 30.3371 6.04311 30.3518L6.12401 30.363C8.79563 30.6173 17.172 30.7425 17.5272 30.7476L17.5378 30.7478L17.5485 30.7476C17.6185 30.7473 24.6061 30.7014 29.2331 30.3649L29.2943 30.3585C29.3528 30.3508 29.4184 30.3438 29.4905 30.3363C30.2452 30.2562 31.8158 30.0899 33.2084 28.5577C34.3686 27.2965 34.7043 24.8444 34.7384 24.5691L34.7424 24.5333C34.7529 24.4158 35.0001 21.6253 35.0001 18.8237V16.2046C34.9999 13.403 34.7529 10.6125 34.7424 10.495ZM32.9488 18.8237C32.9488 21.4168 32.7224 24.0873 32.701 24.3325C32.614 25.0078 32.2602 26.5592 31.6949 27.1737C30.8233 28.1326 29.9279 28.2276 29.2743 28.2968C29.1952 28.3051 29.122 28.3131 29.0558 28.3213C24.5804 28.645 17.8564 28.6946 17.5467 28.6965C17.1993 28.6914 8.94543 28.5651 6.35526 28.3245C6.22255 28.3029 6.07915 28.2864 5.92802 28.2693C5.16138 28.1814 4.11196 28.0613 3.305 27.1737L3.28604 27.1534C2.73063 26.5747 2.38696 25.1239 2.29964 24.3405C2.28335 24.1552 2.05104 21.4531 2.05104 18.8237V16.2046C2.05104 13.6145 2.27695 10.9468 2.29884 10.6966C2.40272 9.90116 2.7632 8.44372 3.305 7.85465C4.20328 6.86665 5.15043 6.75716 5.77688 6.6848C5.83669 6.67786 5.8925 6.67145 5.94404 6.66477C10.4846 6.33953 17.2569 6.2912 17.4999 6.28933C17.7429 6.29093 24.5129 6.33953 29.0131 6.66477C29.0684 6.67171 29.1287 6.67866 29.1936 6.68613C29.8379 6.75957 30.8118 6.87065 31.7055 7.82394L31.7138 7.83276C32.2692 8.41141 32.6129 9.88754 32.7002 10.6868C32.7157 10.8617 32.9488 13.5696 32.9488 16.2046V18.8237Z" fill="#009DBC"/>
</g>
<defs>
<clipPath id="clip0">
<rect width="35" height="35" fill="white"/>
</clipPath>
</defs>
</svg>
