<svg width="170" height="180" viewBox="0 0 170 180" fill="none" xmlns="http://www.w3.org/2000/svg">
<path d="M45 108.5L133 107.5L132 120H44L45 108.5Z" fill="white"/>
<path d="M102.798 113.907H103.715L103.252 112.175L102.798 113.907ZM53.1937 115.338H54.6438V111.47H53.5195C53.5133 113.168 53.4042 114.468 53.1937 115.338ZM69.4817 111.692C69.4176 111.795 69.386 111.93 69.386 112.106C69.386 112.29 69.4165 112.429 69.4786 112.531C69.5412 112.634 69.6192 112.696 69.717 112.721C69.8318 112.751 70.0769 112.766 70.4451 112.766H71.0103V111.479H70.4084C70.0521 111.479 69.8173 111.49 69.7092 111.512C69.6213 111.53 69.5474 111.588 69.4817 111.692ZM112.825 113.907H113.742L113.279 112.175L112.825 113.907ZM131.718 116.702H130.583V113.953H129.014V116.702H127.878V110.107H129.014V112.581H130.583V110.107H131.718V116.702ZM126.027 116.702H124.95V112.985L123.293 116.702H122.206V110.107H123.283V113.897L124.944 110.107H126.027V116.702ZM119.999 116.263C119.688 116.625 119.224 116.809 118.62 116.809C118.129 116.809 117.734 116.692 117.444 116.461C117.147 116.223 116.922 115.781 116.776 115.146L116.743 115L117.791 114.522L117.825 114.67C117.902 115.007 118 115.224 118.117 115.316C118.243 115.413 118.403 115.463 118.592 115.463C118.85 115.463 119.036 115.39 119.146 115.246C119.255 115.102 119.308 114.944 119.308 114.764C119.308 114.556 119.249 114.392 119.128 114.265C119 114.129 118.795 114.06 118.521 114.06H118.203V112.804H118.42C118.671 112.804 118.863 112.729 118.99 112.58C119.113 112.435 119.172 112.246 119.172 112.002C119.172 111.816 119.125 111.664 119.027 111.535C118.929 111.407 118.78 111.342 118.586 111.342C118.251 111.342 118.052 111.557 117.958 112.018L117.929 112.16L116.826 111.803L116.855 111.65C117.06 110.555 117.645 109.999 118.595 109.999C119.151 109.999 119.58 110.176 119.871 110.524C120.165 110.878 120.315 111.301 120.315 111.783C120.315 112.114 120.245 112.418 120.109 112.685C120.012 112.876 119.878 113.05 119.711 113.206C119.928 113.346 120.101 113.527 120.226 113.744C120.391 114.032 120.475 114.39 120.475 114.807C120.475 115.404 120.315 115.894 119.999 116.263ZM114.514 116.702L114.118 115.274H112.464L112.09 116.702H110.88L112.73 110.107H113.847L115.748 116.702H114.514ZM110.402 111.47H108.251V116.702H107.115V110.107H110.402V111.47ZM104.487 116.702L104.091 115.274H102.437L102.063 116.702H100.854L102.702 110.107H103.82L105.72 116.702H104.487ZM99.5413 116.702H98.4708V112.841L97.7696 116.702H96.7172L96.0191 112.845V116.702H94.9487V110.107H96.5124L97.2473 113.946L97.9744 110.107H99.5413V116.702ZM89.0798 116.702H88.0031V112.985L86.3457 116.702H85.2592V110.107H86.3359V113.897L87.9964 110.107H89.0798V116.702ZM83.3981 116.702H82.3214V112.985L80.6635 116.702H79.577V110.107H80.6537V113.897L82.3142 110.107H83.3981V116.702ZM77.7071 116.702H76.5715V114.249C76.4339 114.323 76.2964 114.383 76.1619 114.428C75.9753 114.489 75.7891 114.52 75.6086 114.52C75.137 114.52 74.7347 114.36 74.413 114.048C74.0795 113.722 73.9104 113.162 73.9104 112.384V110.107H75.0465V111.762C75.0465 112.236 75.0584 112.55 75.0822 112.695C75.1023 112.816 75.1618 112.92 75.2652 113.014C75.3738 113.114 75.5424 113.165 75.7658 113.165C75.9504 113.165 76.1159 113.137 76.2581 113.083C76.376 113.037 76.4815 112.973 76.5715 112.891V110.107H77.7071V116.702ZM72.1454 116.702H71.0103V114.078H70.9359C70.6085 114.078 70.4591 114.16 70.3913 114.228C70.3184 114.302 70.1586 114.543 69.8121 115.265L69.1181 116.702H67.7659L68.4247 115.239C68.6501 114.739 68.8249 114.397 68.9594 114.194C69.0411 114.071 69.1352 113.954 69.2417 113.846C68.9289 113.728 68.69 113.532 68.5291 113.26C68.3259 112.918 68.223 112.503 68.223 112.028C68.223 111.616 68.299 111.245 68.449 110.925C68.6021 110.601 68.8063 110.379 69.0576 110.267C69.2986 110.159 69.643 110.107 70.1115 110.107H72.1454V116.702ZM66.8805 111.479H65.5412V116.702H64.4056V111.479H63.0626V110.107H66.8805V111.479ZM61.5386 116.702H60.4614V112.985L58.8035 116.702H57.717V110.107H58.7942V113.897L60.4542 110.107H61.5386V116.702ZM56.1745 118.074H55.1929V116.702H52.5665V118.074H51.585V115.338H52.008C52.1729 114.838 52.2841 114.255 52.3389 113.604C52.3979 112.9 52.4274 111.999 52.4274 110.926V110.107H55.7763V115.338H56.1745V118.074ZM86.7362 108.145L86.746 108.284C86.7579 108.446 86.7956 108.564 86.8618 108.642C86.9296 108.722 87.0351 108.762 87.1757 108.762C87.3169 108.762 87.4224 108.722 87.4896 108.642C87.5563 108.564 87.5941 108.446 87.6054 108.284L87.6153 108.145H88.2606L88.2498 108.313C88.2224 108.739 88.1112 109.08 87.9199 109.327C87.727 109.575 87.4767 109.701 87.1757 109.701C86.8742 109.701 86.6239 109.575 86.4321 109.327C86.2402 109.08 86.1296 108.739 86.1022 108.313L86.0913 108.145H86.7362ZM131.248 105.295C115.042 103.06 85.7329 104.236 69.6978 104.996C58.7906 105.512 51.7447 105.393 47.6031 106.836C43.116 108.399 42 111.137 42 114.814C42 117.425 42.7136 120.007 46.3056 121.038C49.6375 121.993 86.1616 120.752 111.601 121.846C137.045 122.939 145.341 118.124 142.453 110.476C141.408 107.708 138.009 106.228 131.248 105.295Z" fill="#ED135A"/>
<path d="M87.6128 76.3966C89.381 75.9489 90.4376 74.2059 89.9727 72.5036C89.5082 70.8009 87.6977 69.7834 85.93 70.2307C84.1617 70.678 83.1052 72.4214 83.5697 74.1242C84.0346 75.8269 85.8446 76.8443 87.6128 76.3966ZM96.7651 74.6228C99.0636 74.0411 100.437 71.7751 99.833 69.5617C99.2289 67.3479 96.8758 66.0253 94.5773 66.607C92.2787 67.1891 90.9048 69.4547 91.5093 71.6681C92.1134 73.8815 94.4666 75.2045 96.7651 74.6228ZM138.019 92.7712C137.624 94.3724 137.197 95.0239 135.397 95.1206C133.597 95.2178 132.277 94.7641 132.579 93.3927C132.869 92.0799 134.548 89.9089 136.31 89.0194C138.374 87.9771 138.5 90.8189 138.019 92.7712ZM143.37 90.4961C143.068 87.493 141.206 83.3282 137.237 84.002C133.268 84.6757 129.549 88.1719 127.558 90.8745C125.396 93.8087 124.768 97.914 127.81 100.047C129.483 101.221 133.711 101.818 138.36 100.501C142.987 99.1896 143.822 94.9935 143.37 90.4961ZM87.0914 88.3752C87.1759 87.621 87.6688 85.6328 90.4754 84.1513C92.8246 82.9113 94.6777 83.2918 95.6552 83.6856C96.0903 83.8611 96.237 84.3842 95.9476 84.7433C94.9586 85.9696 92.3316 88.4972 87.3817 88.6748C87.211 88.6808 87.0732 88.5392 87.0914 88.3752ZM129.848 83.0607C131.166 82.354 131.159 79.9104 130.56 78.5787C129.962 77.2471 126.88 78.06 123.526 78.5787C120.172 79.0975 120.298 79.6938 119.552 86.1811C118.676 93.8019 116.132 95.6527 116.132 95.6527C112.379 93.1076 110.701 86.0715 110.451 84.5623C110.165 82.8326 109.26 82.4345 107.843 83.3103C106.719 84.0041 106.144 84.9248 106.517 87.0804C106.567 87.3702 106.622 87.66 106.68 87.9497C104.603 90.5706 102.125 93.837 96.4166 95.6788C89.377 97.95 87.9884 93.5729 87.9884 93.5729C91.5542 93.6444 97.1118 92.2789 100.516 89.0661C103.92 85.8532 103.969 79.2495 97.2211 77.3978C90.7314 75.6171 84.4871 79.4352 82.4686 84.2177C81.6116 86.2483 80.8173 90.045 82.2499 93.9542C80.3373 95.2521 77.7836 96.5862 76.1763 95.8346C73.339 94.5077 72.7185 90.9768 73.8538 84.7069C74.989 78.4371 77.1382 73.5857 78.6997 70.509C80.2612 67.4318 78.0281 66.8043 75.0064 67.0016C71.9847 67.1998 71.5522 68.5473 70.6512 71.1476C69.115 75.5803 66.7836 85.8331 67.6686 91.5632C67.8157 92.5156 68.0286 93.4218 68.3038 94.2727C67.4632 94.919 65.795 95.9369 63.4587 96.0919C60.5997 96.2811 58.3847 94.5385 57.3913 92.5357C59.4587 91.4134 60.8153 90.1841 61.3469 89.5305C62.287 88.3739 62.5688 87.5024 61.9825 85.9958C61.3962 84.4895 60.0254 84.2365 58.1794 85.8186C56.7108 87.0766 55.0852 87.9527 53.3374 88.5392C53.9655 86.2924 54.9265 84.3388 55.6164 82.9858C56.4147 81.4196 56.7241 80.7104 56.02 79.4926C55.3164 78.2748 51.1123 76.5464 49.1227 75.8641C47.1331 75.1814 45.6276 75.2452 45.2876 77.4688C44.9475 79.6925 45.2831 81.1748 46.0005 81.8006C46.718 82.4268 48.5297 82.9477 48.5297 82.9477C46.0405 89.8327 46.5819 97.4398 46.9624 99.2289C47.3074 100.852 48.0706 101.301 49.7343 100.95C52.1244 100.447 52.348 99.3813 52.2955 97.4834C52.2675 96.4758 52.2924 95.4584 52.3667 94.4298C52.6774 94.3583 52.9805 94.2808 53.2774 94.1982C53.9211 95.6326 55.2048 97.9204 57.3522 99.493C61.3482 102.42 68.0891 101.586 71.5833 99.4541C73.0506 100.682 74.8952 101.385 77.1062 101.385C80.3701 101.385 83.3705 99.7858 85.2125 98.5415C88.8463 101.899 94.5617 102.062 99.7339 100.182C105.077 98.2393 108.271 95.2439 108.814 94.708C109.773 96.8358 110.923 98.604 112.157 99.6497C114.712 101.815 118.356 102.567 121.779 98.2316C125.202 93.896 126.875 84.3363 126.875 84.3363C126.875 84.3363 128.531 83.7678 129.848 83.0607Z" fill="white"/>
</svg>
