<svg width="30" height="30" viewBox="0 0 30 30" fill="none" xmlns="http://www.w3.org/2000/svg">
<g clip-path="url(#clip0)">
<path d="M27.2392 3.76562H2.76076C1.2385 3.76562 0 5.00406 0 6.52826C0 8.05053 1.2385 9.28902 2.76076 9.28902H27.2392C28.7615 9.28902 30 8.05053 30 6.52826C30 5.00406 28.7615 3.76562 27.2392 3.76562Z" fill="#ED135A"/>
<path d="M27.2392 12.2383H2.76076C1.2385 12.2383 0 13.4767 0 15.0009C0 16.5232 1.2385 17.7617 2.76076 17.7617H27.2392C28.7615 17.7617 30 16.5232 30 15.0009C30 13.4767 28.7615 12.2383 27.2392 12.2383Z" fill="#ED135A"/>
<path d="M27.2392 20.711H2.76076C1.2385 20.711 0 21.9495 0 23.4736C0 24.9959 1.2385 26.2344 2.76076 26.2344H27.2392C28.7615 26.2344 30 24.9959 30 23.4736C30 21.9495 28.7615 20.711 27.2392 20.711Z" fill="#ED135A"/>
</g>
<defs>
<clipPath id="clip0">
<rect width="30" height="30" fill="white"/>
</clipPath>
</defs>
</svg>
