<svg width="36" height="36" viewBox="0 0 36 36" fill="none" xmlns="http://www.w3.org/2000/svg">
<path d="M35.4246 16.6013L22.4237 3.60009C22.0526 3.22897 21.558 3.02527 21.0306 3.02527C20.5026 3.02527 20.0082 3.22927 19.6371 3.60009L18.4567 4.78077C18.0859 5.1513 17.8816 5.64622 17.8816 6.17393C17.8816 6.70134 18.0859 7.21294 18.4567 7.58347L26.0412 15.1847H1.94486C0.858432 15.1847 0 16.0352 0 17.1219V18.7911C0 19.8778 0.858432 20.8141 1.94486 20.8141H26.1273L18.457 28.4577C18.0862 28.8289 17.8819 29.3103 17.8819 29.838C17.8819 30.3651 18.0862 30.8536 18.457 31.2244L19.6374 32.4013C20.0085 32.7724 20.5029 32.9747 21.0308 32.9747C21.5583 32.9747 22.0529 32.7698 22.424 32.3987L35.4249 19.3978C35.7969 19.0255 36.0015 18.5286 36 18.0003C36.0012 17.4702 35.7969 16.973 35.4246 16.6013Z" fill="#ED135A"/>
</svg>
