<svg width="35" height="35" viewBox="0 0 35 35" fill="none" xmlns="http://www.w3.org/2000/svg">
<path d="M30.8984 0H4.10156C1.83996 0 0 1.83996 0 4.10156V30.8984C0 33.16 1.83996 35 4.10156 35H30.8984C33.16 35 35 33.16 35 30.8984V4.10156C35 1.83996 33.16 0 30.8984 0ZM32.2656 30.8984C32.2656 31.6523 31.6523 32.2656 30.8984 32.2656H23.1055V21.123H27.3294L28.0273 16.8848H23.1055V13.9453C23.1055 12.7849 23.9958 11.8945 25.1562 11.8945H27.959V7.65625H25.1562C21.6752 7.65625 18.8687 10.4761 18.8687 13.9572V16.8848H14.7656V21.123H18.8687V32.2656H4.10156C3.3477 32.2656 2.73438 31.6523 2.73438 30.8984V4.10156C2.73438 3.3477 3.3477 2.73438 4.10156 2.73438H30.8984C31.6523 2.73438 32.2656 3.3477 32.2656 4.10156V30.8984Z" fill="white"/>
</svg>
