<svg width="28" height="29" viewBox="0 0 28 29" fill="none" xmlns="http://www.w3.org/2000/svg">
<g clip-path="url(#clip0)">
<path d="M27.6579 26.938L19.6955 18.6912C21.2378 16.718 22.1664 14.2107 22.1664 11.4799C22.1664 5.15074 17.1941 0.000854492 11.0832 0.000854492C4.97225 0.000854492 0 5.15068 0 11.4799C0 17.8091 4.9723 22.9589 11.0832 22.9589C13.7199 22.9589 16.1407 21.9971 18.0458 20.3997L26.0082 28.6465C26.2357 28.8821 26.5344 29.0006 26.8331 29.0006C27.1318 29.0006 27.4304 28.8821 27.6579 28.6465C28.1141 28.1741 28.1141 27.4104 27.6579 26.938ZM11.0832 20.5423C6.25794 20.5423 2.33333 16.4775 2.33333 11.4799C2.33333 6.48223 6.25794 2.41746 11.0832 2.41746C15.9085 2.41746 19.8332 6.48223 19.8332 11.4799C19.8332 16.4775 15.9085 20.5423 11.0832 20.5423Z" fill="#3C3C3C"/>
</g>
<defs>
<clipPath id="clip0">
<rect width="28" height="29" fill="white"/>
</clipPath>
</defs>
</svg>
