<svg width="25" height="25" viewBox="0 0 25 25" fill="none" xmlns="http://www.w3.org/2000/svg">
<g clip-path="url(#clip0)">
<path d="M24.9343 9.5891C24.7697 9.08288 24.3207 8.72449 23.7916 8.67661L16.5748 8.02143L13.7227 1.34407C13.5122 0.85349 13.033 0.536865 12.4997 0.536865C11.9664 0.536865 11.4871 0.85349 11.2779 1.34407L8.42575 8.02143L1.20784 8.67661C0.678737 8.72544 0.230694 9.08384 0.0651331 9.5891C-0.0994738 10.0953 0.0525443 10.6506 0.452713 11.0015L5.90801 15.785L4.29952 22.8694C4.18183 23.3903 4.38401 23.929 4.81623 24.2414C5.04855 24.4102 5.32149 24.4945 5.59539 24.4945C5.83076 24.4945 6.06632 24.432 6.27671 24.3061L12.4997 20.5852L18.7216 24.3061C19.178 24.5788 19.752 24.5538 20.1832 24.2414C20.6154 23.929 20.8176 23.3903 20.6999 22.8694L19.0914 15.785L24.5467 11.0015C24.9467 10.6506 25.0989 10.0965 24.9343 9.5891Z" fill="#ED135A"/>
</g>
<defs>
<clipPath id="clip0">
<rect width="25" height="25" fill="white"/>
</clipPath>
</defs>
</svg>
