<svg width="170" height="80" viewBox="0 0 170 80" fill="none" xmlns="http://www.w3.org/2000/svg">
<path d="M102.798 62.9067H103.715L103.252 61.1747L102.798 62.9067ZM53.1937 64.3385H54.6438V60.4699H53.5195C53.5133 62.1682 53.4042 63.4678 53.1937 64.3385ZM69.4817 60.6919C69.4176 60.7954 69.386 60.9304 69.386 61.1057C69.386 61.2896 69.4165 61.429 69.4786 61.531C69.5412 61.6337 69.6192 61.6962 69.717 61.7214C69.8318 61.7508 70.0769 61.7659 70.4451 61.7659H71.0103V60.4793H70.4084C70.0521 60.4793 69.8173 60.4901 69.7092 60.5116C69.6213 60.5296 69.5474 60.5885 69.4817 60.6919ZM112.825 62.9067H113.742L113.279 61.1747L112.825 62.9067ZM131.718 65.702H130.583V62.9534H129.014V65.702H127.878V59.1072H129.014V61.5813H130.583V59.1072H131.718V65.702ZM126.027 65.702H124.95V61.985L123.293 65.702H122.206V59.1072H123.283V62.8974L124.944 59.1072H126.027V65.702ZM119.999 65.2631C119.688 65.6251 119.224 65.8091 118.62 65.8091C118.129 65.8091 117.734 65.692 117.444 65.4606C117.147 65.2228 116.922 64.781 116.776 64.146L116.743 64.0001L117.791 63.5217L117.825 63.6704C117.902 64.0073 118 64.2243 118.117 64.3155C118.243 64.4132 118.403 64.4635 118.592 64.4635C118.85 64.4635 119.036 64.3902 119.146 64.2458C119.255 64.1021 119.308 63.9441 119.308 63.7638C119.308 63.5562 119.249 63.3924 119.128 63.2645C119 63.1294 118.795 63.0605 118.521 63.0605H118.203V61.804H118.42C118.671 61.804 118.863 61.7286 118.99 61.5799C119.113 61.4348 119.172 61.2458 119.172 61.0023C119.172 60.8162 119.125 60.6639 119.027 60.5353C118.929 60.4067 118.78 60.3421 118.586 60.3421C118.251 60.3421 118.052 60.5569 117.958 61.0181L117.929 61.1603L116.826 60.8033L116.855 60.6503C117.06 59.5547 117.645 58.9994 118.595 58.9994C119.151 58.9994 119.58 59.1761 119.871 59.5238C120.165 59.878 120.315 60.3011 120.315 60.7832C120.315 61.1143 120.245 61.4182 120.109 61.6855C120.012 61.8758 119.878 62.0504 119.711 62.2056C119.928 62.3464 120.101 62.5267 120.226 62.7437C120.391 63.0317 120.475 63.3895 120.475 63.8069C120.475 64.4039 120.315 64.8938 119.999 65.2631ZM114.514 65.702L114.118 64.2738H112.464L112.09 65.702H110.88L112.73 59.1072H113.847L115.748 65.702H114.514ZM110.402 60.4699H108.251V65.702H107.115V59.1072H110.402V60.4699ZM104.487 65.702L104.091 64.2738H102.437L102.063 65.702H100.854L102.702 59.1072H103.82L105.72 65.702H104.487ZM99.5413 65.702H98.4708V61.8406L97.7696 65.702H96.7172L96.0191 61.845V65.702H94.9487V59.1072H96.5124L97.2473 62.9463L97.9744 59.1072H99.5413V65.702ZM89.0798 65.702H88.0031V61.985L86.3457 65.702H85.2592V59.1072H86.3359V62.8974L87.9964 59.1072H89.0798V65.702ZM83.3981 65.702H82.3214V61.985L80.6635 65.702H79.577V59.1072H80.6537V62.8974L82.3142 59.1072H83.3981V65.702ZM77.7071 65.702H76.5715V63.2494C76.4339 63.3234 76.2964 63.383 76.1619 63.4276C75.9753 63.4886 75.7891 63.5195 75.6086 63.5195C75.137 63.5195 74.7347 63.36 74.413 63.0475C74.0795 62.7221 73.9104 62.1625 73.9104 61.3837V59.1072H75.0465V60.7623C75.0465 61.2358 75.0584 61.5497 75.0822 61.6948C75.1023 61.8155 75.1618 61.9197 75.2652 62.0145C75.3738 62.1144 75.5424 62.1646 75.7658 62.1646C75.9504 62.1646 76.1159 62.1373 76.2581 62.0827C76.376 62.0375 76.4815 61.9728 76.5715 61.8909V59.1072H77.7071V65.702ZM72.1454 65.702H71.0103V63.0777H70.9359C70.6085 63.0777 70.4591 63.1596 70.3913 63.2279C70.3184 63.3019 70.1586 63.5425 69.8121 64.2652L69.1181 65.702H67.7659L68.4247 64.2394C68.6501 63.7386 68.8249 63.3967 68.9594 63.1941C69.0411 63.0705 69.1352 62.9542 69.2417 62.8464C68.9289 62.7279 68.69 62.5317 68.5291 62.2602C68.3259 61.9175 68.223 61.503 68.223 61.0281C68.223 60.6158 68.299 60.2451 68.449 59.9254C68.6021 59.6007 68.8063 59.3787 69.0576 59.2666C69.2986 59.1589 69.643 59.1072 70.1115 59.1072H72.1454V65.702ZM66.8805 60.4793H65.5412V65.702H64.4056V60.4793H63.0626V59.1072H66.8805V60.4793ZM61.5386 65.702H60.4614V61.985L58.8035 65.702H57.717V59.1072H58.7942V62.8967L60.4542 59.1072H61.5386V65.702ZM56.1745 67.0741H55.1929V65.702H52.5665V67.0741H51.585V64.3385H52.008C52.1729 63.8378 52.2841 63.2552 52.3389 62.6036C52.3979 61.8996 52.4274 60.9987 52.4274 59.9261V59.1072H55.7763V64.3385H56.1745V67.0741ZM86.7362 57.1445L86.746 57.2839C86.7579 57.4462 86.7956 57.564 86.8618 57.6424C86.9296 57.7221 87.0351 57.7623 87.1757 57.7623C87.3169 57.7623 87.4224 57.7221 87.4896 57.6424C87.5563 57.564 87.5941 57.4462 87.6054 57.2839L87.6153 57.1445H88.2606L88.2498 57.3126C88.2224 57.7386 88.1112 58.0799 87.9199 58.327C87.727 58.5748 87.4767 58.7005 87.1757 58.7005C86.8742 58.7005 86.6239 58.5748 86.4321 58.327C86.2402 58.0799 86.1296 57.7386 86.1022 57.3126L86.0913 57.1445H86.7362ZM131.248 54.2954C115.042 52.0604 85.7329 53.2364 69.6978 53.9958C58.7906 54.5123 51.7447 54.3931 47.6031 55.8356C43.116 57.3988 42 60.1373 42 63.8141C42 66.4254 42.7136 69.0073 46.3056 70.0375C49.6375 70.993 86.1616 69.7516 111.601 70.8457C137.045 71.9391 145.341 67.1244 142.453 59.4764C141.408 56.7077 138.009 55.2278 131.248 54.2954Z" fill="#ED135A"/>
<path d="M87.6128 25.3965C89.381 24.9488 90.4376 23.2059 89.9727 21.5035C89.5082 19.8008 87.6977 18.7834 85.93 19.2307C84.1617 19.678 83.1052 21.4214 83.5697 23.1241C84.0346 24.8268 85.8446 25.8443 87.6128 25.3965ZM96.7651 23.6228C99.0636 23.0411 100.437 20.775 99.833 18.5616C99.2289 16.3478 96.8758 15.0252 94.5773 15.6069C92.2787 16.189 90.9048 18.4546 91.5093 20.668C92.1134 22.8814 94.4666 24.2045 96.7651 23.6228ZM138.019 41.7711C137.624 43.3724 137.197 44.0239 135.397 44.1206C133.597 44.2178 132.277 43.764 132.579 42.3926C132.869 41.0798 134.548 38.9088 136.31 38.0194C138.374 36.9771 138.5 39.8188 138.019 41.7711ZM143.37 39.4961C143.068 36.493 141.206 32.3282 137.237 33.0019C133.268 33.6756 129.549 37.1718 127.558 39.8745C125.396 42.8087 124.768 46.914 127.81 49.0469C129.483 50.2205 133.711 50.8181 138.36 49.5006C142.987 48.1895 143.822 43.9935 143.37 39.4961ZM87.0914 37.3752C87.1759 36.621 87.6688 34.6327 90.4754 33.1513C92.8246 31.9113 94.6777 32.2918 95.6552 32.6856C96.0903 32.8611 96.237 33.3841 95.9476 33.7433C94.9586 34.9696 92.3316 37.4971 87.3817 37.6748C87.211 37.6808 87.0732 37.5391 87.0914 37.3752ZM129.848 32.0606C131.166 31.354 131.159 28.9103 130.56 27.5787C129.962 26.2471 126.88 27.0599 123.526 27.5787C120.172 28.0975 120.298 28.6937 119.552 35.181C118.676 42.8018 116.132 44.6526 116.132 44.6526C112.379 42.1075 110.701 35.0715 110.451 33.5622C110.165 31.8325 109.26 31.4344 107.843 32.3102C106.719 33.004 106.144 33.9247 106.517 36.0803C106.567 36.3701 106.622 36.6599 106.68 36.9497C104.603 39.5706 102.125 42.8369 96.4166 44.6787C89.377 46.9499 87.9884 42.5728 87.9884 42.5728C91.5542 42.6443 97.1118 41.2789 100.516 38.066C103.92 34.8532 103.969 28.2494 97.2211 26.3977C90.7314 24.6171 84.4871 28.4352 82.4686 33.2176C81.6116 35.2482 80.8173 39.0449 82.2499 42.9542C80.3373 44.252 77.7836 45.5862 76.1763 44.8346C73.339 43.5076 72.7185 39.9768 73.8538 33.7069C74.989 27.437 77.1382 22.5856 78.6997 19.5089C80.2612 16.4317 78.0281 15.8042 75.0064 16.0016C71.9847 16.1997 71.5522 17.5472 70.6512 20.1475C69.115 24.5803 66.7836 34.833 67.6686 40.5632C67.8157 41.5156 68.0286 42.4217 68.3038 43.2726C67.4632 43.919 65.795 44.9369 63.4587 45.0918C60.5997 45.281 58.3847 43.5385 57.3913 41.5357C59.4587 40.4134 60.8153 39.184 61.3469 38.5304C62.287 37.3739 62.5688 36.5024 61.9825 34.9957C61.3962 33.4894 60.0254 33.2365 58.1794 34.8185C56.7108 36.0765 55.0852 36.9527 53.3374 37.5391C53.9655 35.2923 54.9265 33.3388 55.6164 31.9857C56.4147 30.4196 56.7241 29.7103 56.02 28.4925C55.3164 27.2748 51.1123 25.5464 49.1227 24.8641C47.1331 24.1813 45.6276 24.2451 45.2876 26.4688C44.9475 28.6924 45.2831 30.1747 46.0005 30.8005C46.718 31.4267 48.5297 31.9476 48.5297 31.9476C46.0405 38.8326 46.5819 46.4397 46.9624 48.2289C47.3074 49.8516 48.0706 50.3006 49.7343 49.95C52.1244 49.4467 52.348 48.3813 52.2955 46.4834C52.2675 45.4758 52.2924 44.4583 52.3667 43.4297C52.6774 43.3583 52.9805 43.2808 53.2774 43.1982C53.9211 44.6325 55.2048 46.9204 57.3522 48.493C61.3482 51.4203 68.0891 50.5861 71.5833 48.454C73.0506 49.6821 74.8952 50.3849 77.1062 50.3849C80.3701 50.3849 83.3705 48.7858 85.2125 47.5415C88.8463 50.8986 94.5617 51.0616 99.7339 49.1817C105.077 47.2393 108.271 44.2439 108.814 43.708C109.773 45.8357 110.923 47.604 112.157 48.6496C114.712 50.8151 118.356 51.5671 121.779 47.2316C125.202 42.896 126.875 33.3362 126.875 33.3362C126.875 33.3362 128.531 32.7678 129.848 32.0606Z" fill="#009DBC"/>
</svg>
